<mxfile host="app.diagrams.net" modified="2024-05-08T11:41:10.498Z" agent="Mozilla/5.0 (Windows NT 10.0; Win64; x64) AppleWebKit/537.36 (KHTML, like Gecko) Chrome/124.0.0.0 Safari/537.36" etag="IrLV138GoDbHtdcs7nkv" version="24.3.1" type="device">
  <diagram name="Page-1" id="6EpfV0Nni3wadXMd9tVg">
    <mxGraphModel dx="1434" dy="746" grid="1" gridSize="10" guides="1" tooltips="1" connect="1" arrows="1" fold="1" page="1" pageScale="1" pageWidth="827" pageHeight="1169" math="0" shadow="0">
      <root>
        <mxCell id="0" />
        <mxCell id="1" parent="0" />
        <mxCell id="-lo_HTECnEFB_BLqz9s1-24" value="&lt;h1&gt;&lt;font color=&quot;#000099&quot; style=&quot;font-size: 14px;&quot;&gt;Service Manager Architecture&lt;/font&gt;&lt;/h1&gt;" style="text;strokeColor=none;fillColor=none;html=1;fontSize=24;fontStyle=1;verticalAlign=middle;align=center;" parent="1" vertex="1">
          <mxGeometry x="269" y="50" width="360" height="50" as="geometry" />
        </mxCell>
        <mxCell id="-lo_HTECnEFB_BLqz9s1-30" value="" style="endArrow=classic;startArrow=classic;html=1;rounded=0;exitX=0.5;exitY=0;exitDx=0;exitDy=0;entryX=0.5;entryY=1;entryDx=0;entryDy=0;fontColor=#66B2FF;strokeColor=#66B2FF;" parent="1" source="-lo_HTECnEFB_BLqz9s1-12" edge="1" target="-lo_HTECnEFB_BLqz9s1-34">
          <mxGeometry width="50" height="50" relative="1" as="geometry">
            <mxPoint x="450" y="290" as="sourcePoint" />
            <mxPoint x="447" y="260" as="targetPoint" />
          </mxGeometry>
        </mxCell>
        <mxCell id="xlFyNMajzue5pDUItXmy-2" value="R1 SME Interface" style="edgeLabel;html=1;align=center;verticalAlign=middle;resizable=0;points=[];fontColor=#000099;" vertex="1" connectable="0" parent="-lo_HTECnEFB_BLqz9s1-30">
          <mxGeometry y="1" relative="1" as="geometry">
            <mxPoint x="1" as="offset" />
          </mxGeometry>
        </mxCell>
        <mxCell id="-lo_HTECnEFB_BLqz9s1-34" value="&lt;font color=&quot;#000099&quot;&gt;rApp&lt;/font&gt;" style="label;whiteSpace=wrap;html=1;align=center;verticalAlign=bottom;spacingLeft=0;spacingBottom=4;imageAlign=center;imageVerticalAlign=top;image=img/clipart/Gear_128x128.png;strokeColor=#66B2FF;" parent="1" vertex="1">
          <mxGeometry x="386.5" y="120" width="120" height="80" as="geometry" />
        </mxCell>
        <mxCell id="-lo_HTECnEFB_BLqz9s1-18" value="" style="group" parent="1" vertex="1" connectable="0">
          <mxGeometry x="269" y="300" width="355" height="160" as="geometry" />
        </mxCell>
        <mxCell id="-lo_HTECnEFB_BLqz9s1-12" value="" style="shape=ext;double=1;rounded=1;whiteSpace=wrap;html=1;strokeColor=#66B2FF;align=center;" parent="-lo_HTECnEFB_BLqz9s1-18" vertex="1">
          <mxGeometry width="355" height="160" as="geometry" />
        </mxCell>
        <mxCell id="-lo_HTECnEFB_BLqz9s1-13" value="&lt;font color=&quot;#000099&quot;&gt;CAPIF&lt;/font&gt;" style="label;whiteSpace=wrap;html=1;align=center;verticalAlign=bottom;spacingLeft=0;spacingBottom=4;imageAlign=center;imageVerticalAlign=top;image=img/clipart/Gear_128x128.png;strokeColor=#66B2FF;" parent="-lo_HTECnEFB_BLqz9s1-18" vertex="1">
          <mxGeometry x="40" y="70" width="120" height="78.57" as="geometry" />
        </mxCell>
        <mxCell id="-lo_HTECnEFB_BLqz9s1-14" value="&lt;font color=&quot;#000099&quot;&gt;Kong&lt;/font&gt;" style="label;whiteSpace=wrap;html=1;align=center;verticalAlign=bottom;spacingLeft=0;spacingBottom=4;imageAlign=center;imageVerticalAlign=top;image=img/clipart/Gear_128x128.png;strokeColor=#66B2FF;" parent="-lo_HTECnEFB_BLqz9s1-18" vertex="1">
          <mxGeometry x="200" y="70" width="120" height="78.57" as="geometry" />
        </mxCell>
        <mxCell id="-lo_HTECnEFB_BLqz9s1-15" style="edgeStyle=orthogonalEdgeStyle;rounded=0;orthogonalLoop=1;jettySize=auto;html=1;exitX=0.5;exitY=1;exitDx=0;exitDy=0;" parent="-lo_HTECnEFB_BLqz9s1-18" source="-lo_HTECnEFB_BLqz9s1-12" target="-lo_HTECnEFB_BLqz9s1-12" edge="1">
          <mxGeometry relative="1" as="geometry" />
        </mxCell>
        <mxCell id="-lo_HTECnEFB_BLqz9s1-40" value="&lt;font color=&quot;#000099&quot; style=&quot;font-size: 14px;&quot;&gt;&lt;b&gt;Service Manager&lt;/b&gt;&lt;/font&gt;" style="text;html=1;align=center;verticalAlign=middle;whiteSpace=wrap;rounded=0;" parent="-lo_HTECnEFB_BLqz9s1-18" vertex="1">
          <mxGeometry x="40" y="22.857142857142854" width="290" height="38.09523809523809" as="geometry" />
        </mxCell>
        <mxCell id="-lo_HTECnEFB_BLqz9s1-26" value="Service Manager provides a wrapper for both CAPIF and Kong." style="text;html=1;align=center;verticalAlign=middle;resizable=0;points=[];autosize=1;strokeColor=none;fillColor=none;" parent="1" vertex="1">
          <mxGeometry x="269" y="470" width="360" height="30" as="geometry" />
        </mxCell>
      </root>
    </mxGraphModel>
  </diagram>
</mxfile>
